<svg xmlns="http://www.w3.org/2000/svg" xmlns:xlink="http://www.w3.org/1999/xlink" width="500" zoomAndPan="magnify" viewBox="0 0 375 374.999991" height="500" preserveAspectRatio="xMidYMid meet" version="1.0"><defs><g/><clipPath id="56a2f88e0e"><path d="M 201 145 L 223 145 L 223 167 L 201 167 Z M 201 145 " clip-rule="nonzero"/></clipPath><clipPath id="b115c2359f"><path d="M 184.144531 130.488281 L 226.5625 135.789062 L 222.46875 168.535156 L 180.050781 163.230469 Z M 184.144531 130.488281 " clip-rule="nonzero"/></clipPath><clipPath id="3a49400a0e"><path d="M 184.144531 130.488281 L 226.5625 135.789062 L 222.46875 168.535156 L 180.050781 163.230469 Z M 184.144531 130.488281 " clip-rule="nonzero"/></clipPath><clipPath id="3eedee6bf6"><path d="M 183 131 L 209 131 L 209 153 L 183 153 Z M 183 131 " clip-rule="nonzero"/></clipPath><clipPath id="e1b1127749"><path d="M 184.144531 130.488281 L 226.5625 135.789062 L 222.46875 168.535156 L 180.050781 163.230469 Z M 184.144531 130.488281 " clip-rule="nonzero"/></clipPath><clipPath id="62f7341208"><path d="M 184.144531 130.488281 L 226.5625 135.789062 L 222.46875 168.535156 L 180.050781 163.230469 Z M 184.144531 130.488281 " clip-rule="nonzero"/></clipPath></defs><g fill="#000000" fill-opacity="1"><g transform="translate(9.360634, 150.149484)"><g><path d="M -0.4375 10.140625 C 1.726562 9.492188 3.671875 8.34375 5.390625 6.6875 C 7.117188 5.039062 8.378906 3.007812 9.171875 0.59375 C 9.816406 -1.28125 10.238281 -3.460938 10.4375 -5.953125 C 10.632812 -8.441406 10.734375 -12.28125 10.734375 -17.46875 L 10.734375 -50.3125 L 3.625 -51.28125 L 3.625 -54.984375 L 25.375 -54.984375 L 25.375 -51.28125 L 18.640625 -50.3125 L 18.640625 -16.875 C 18.640625 -12.976562 18.59375 -9.84375 18.5 -7.46875 C 18.40625 -5.101562 18.179688 -3.082031 17.828125 -1.40625 C 16.941406 2.539062 14.992188 5.796875 11.984375 8.359375 C 8.972656 10.921875 5.492188 12.550781 1.546875 13.25 Z M -0.4375 10.140625 "/></g></g></g><g fill="#000000" fill-opacity="1"><g transform="translate(37.55163, 150.149484)"><g><path d="M 25.828125 0.8125 C 20.796875 0.8125 16.539062 -0.34375 13.0625 -2.65625 C 9.582031 -4.976562 6.953125 -8.25 5.171875 -12.46875 C 3.398438 -16.6875 2.515625 -21.582031 2.515625 -27.15625 C 2.515625 -32.832031 3.585938 -37.816406 5.734375 -42.109375 C 7.878906 -46.398438 10.828125 -49.71875 14.578125 -52.0625 C 18.328125 -54.40625 22.546875 -55.578125 27.234375 -55.578125 C 34.929688 -55.578125 40.8125 -53.144531 44.875 -48.28125 C 48.945312 -43.425781 50.984375 -36.707031 50.984375 -28.125 C 50.984375 -22.351562 49.882812 -17.28125 47.6875 -12.90625 C 45.5 -8.539062 42.492188 -5.160156 38.671875 -2.765625 C 34.847656 -0.378906 30.566406 0.8125 25.828125 0.8125 Z M 26.78125 -51.71875 C 22 -51.71875 18.226562 -49.632812 15.46875 -45.46875 C 12.707031 -41.300781 11.328125 -35.195312 11.328125 -27.15625 C 11.328125 -19.757812 12.671875 -13.898438 15.359375 -9.578125 C 18.046875 -5.265625 21.804688 -3.109375 26.640625 -3.109375 C 31.378906 -3.109375 35.140625 -5.253906 37.921875 -9.546875 C 40.710938 -13.835938 42.109375 -20.003906 42.109375 -28.046875 C 42.109375 -35.492188 40.773438 -41.300781 38.109375 -45.46875 C 35.441406 -49.632812 31.664062 -51.71875 26.78125 -51.71875 Z M 26.78125 -51.71875 "/></g></g></g><g fill="#000000" fill-opacity="1"><g transform="translate(90.973951, 150.149484)"><g><path d="M 3.40625 -3.625 L 9.546875 -4.359375 L 9.546875 -50.390625 L 3.78125 -51.359375 L 3.78125 -54.984375 L 13.46875 -54.984375 C 14.851562 -54.984375 16.726562 -55.082031 19.09375 -55.28125 C 21.5625 -55.476562 23.484375 -55.578125 24.859375 -55.578125 C 32.109375 -55.578125 37.273438 -54.40625 40.359375 -52.0625 C 43.441406 -49.71875 44.984375 -46.03125 44.984375 -41 C 44.984375 -37.488281 44.007812 -34.28125 42.0625 -31.375 C 40.113281 -28.46875 37.441406 -26.492188 34.046875 -25.453125 C 35.617188 -24.617188 37.082031 -23.175781 38.4375 -21.125 C 39.800781 -19.082031 41.46875 -16.234375 43.4375 -12.578125 C 44.96875 -9.816406 46.140625 -7.796875 46.953125 -6.515625 C 47.765625 -5.234375 48.539062 -4.515625 49.28125 -4.359375 L 52.171875 -3.625 L 52.171875 0 L 41.953125 0 C 41.171875 0 40.285156 -0.847656 39.296875 -2.546875 C 38.304688 -4.253906 37 -6.882812 35.375 -10.4375 C 33.59375 -14.332031 32.046875 -17.425781 30.734375 -19.71875 C 29.429688 -22.007812 28.140625 -23.476562 26.859375 -24.125 C 21.578125 -24.125 18.445312 -24.148438 17.46875 -24.203125 L 17.46875 -4.359375 L 24.796875 -3.625 L 24.796875 0 L 3.40625 0 Z M 26.265625 -28.125 C 29.421875 -28.125 31.910156 -29.160156 33.734375 -31.234375 C 35.566406 -33.304688 36.484375 -36.390625 36.484375 -40.484375 C 36.484375 -44.078125 35.554688 -46.820312 33.703125 -48.71875 C 31.859375 -50.625 28.664062 -51.578125 24.125 -51.578125 C 22.539062 -51.578125 20.960938 -51.476562 19.390625 -51.28125 C 18.398438 -51.1875 17.757812 -51.140625 17.46875 -51.140625 L 17.46875 -28.1875 C 18.207031 -28.144531 19.734375 -28.125 22.046875 -28.125 Z M 26.265625 -28.125 "/></g></g></g><g fill="#000000" fill-opacity="1"><g transform="translate(143.06441, 150.149484)"><g><path d="M 21.453125 -51.0625 L 8.734375 -50.609375 L 6.140625 -35.15625 L 1.265625 -35.15625 L 2.515625 -54.984375 L 48.625 -54.984375 L 49.5 -35.15625 L 44.84375 -35.15625 L 42.40625 -50.609375 L 29.59375 -51.0625 L 29.59375 -4.359375 L 40.109375 -3.625 L 40.109375 0 L 11.84375 0 L 11.84375 -3.625 L 21.453125 -4.359375 Z M 21.453125 -51.0625 "/></g></g></g><g fill="#000000" fill-opacity="1"><g transform="translate(194.266967, 150.149484)"><g/></g></g><g fill="#000000" fill-opacity="1"><g transform="translate(211.803103, 150.149484)"><g><path d="M 9.546875 -50.390625 L 3.78125 -51.28125 L 3.78125 -54.984375 L 13.46875 -54.984375 C 15 -54.984375 17.191406 -55.082031 20.046875 -55.28125 C 22.910156 -55.476562 25.054688 -55.578125 26.484375 -55.578125 C 35.660156 -55.578125 42.484375 -53.269531 46.953125 -48.65625 C 51.421875 -44.039062 53.65625 -37.566406 53.65625 -29.234375 C 53.65625 -23.410156 52.503906 -18.238281 50.203125 -13.71875 C 47.910156 -9.207031 44.691406 -5.691406 40.546875 -3.171875 C 36.410156 -0.660156 31.648438 0.59375 26.265625 0.59375 C 25.085938 0.59375 23.066406 0.492188 20.203125 0.296875 C 17.242188 0.0976562 15.023438 0 13.546875 0 L 3.40625 0 L 3.40625 -3.625 L 9.546875 -4.359375 Z M 17.390625 -4.140625 C 19.117188 -3.742188 21.335938 -3.546875 24.046875 -3.546875 L 26.265625 -3.546875 C 29.960938 -3.597656 33.226562 -4.535156 36.0625 -6.359375 C 38.90625 -8.191406 41.113281 -10.921875 42.6875 -14.546875 C 44.269531 -18.171875 45.0625 -22.570312 45.0625 -27.75 C 45.0625 -35.539062 43.367188 -41.457031 39.984375 -45.5 C 36.609375 -49.550781 31.519531 -51.578125 24.71875 -51.578125 C 23.28125 -51.578125 21.578125 -51.476562 19.609375 -51.28125 C 18.773438 -51.132812 18.035156 -51.0625 17.390625 -51.0625 Z M 17.390625 -4.140625 "/></g></g></g><g fill="#000000" fill-opacity="1"><g transform="translate(267.889152, 150.149484)"><g><path d="M 9.546875 -50.390625 L 3.484375 -51.28125 L 3.484375 -54.984375 L 41.140625 -54.984375 L 42.1875 -43.515625 L 37.96875 -43.515625 L 35.8125 -50.6875 L 17.46875 -51.140625 L 17.46875 -30.265625 L 29.828125 -30.484375 L 30.859375 -36.625 L 34.921875 -36.625 L 34.921875 -19.609375 L 30.859375 -19.609375 L 29.828125 -25.96875 L 17.46875 -26.203125 L 17.46875 -4.140625 L 38.328125 -4.890625 L 42.25 -14.203125 L 46.625 -12.875 L 44.46875 0 L 3.40625 0 L 3.40625 -3.625 L 9.546875 -4.359375 Z M 9.546875 -50.390625 "/></g></g></g><g fill="#000000" fill-opacity="1"><g transform="translate(316.058018, 150.149484)"><g><path d="M -1.1875 -54.984375 L 18.5 -54.984375 L 18.5 -51.28125 L 11.90625 -50.390625 L 24.125 -15.6875 L 26.859375 -6.65625 L 29.296875 -15.84375 L 40.328125 -50.390625 L 34.484375 -51.28125 L 34.484375 -54.984375 L 50.984375 -54.984375 L 50.984375 -51.28125 L 46.25 -50.390625 L 28.71875 0.59375 L 22.28125 0.59375 L 3.328125 -50.390625 L -1.1875 -51.28125 Z M -1.1875 -54.984375 "/></g></g></g><g clip-path="url(#56a2f88e0e)"><g clip-path="url(#b115c2359f)"><g clip-path="url(#3a49400a0e)"><path fill="#388e3c" d="M 219.066406 164.226562 C 218.484375 164.398438 217.640625 164.652344 216.601562 164.960938 C 216.339844 165.039062 216.058594 165.105469 215.765625 165.183594 C 215.472656 165.253906 215.167969 165.324219 214.847656 165.386719 C 214.6875 165.414062 214.523438 165.441406 214.355469 165.46875 L 214.226562 165.488281 L 214.195312 165.496094 L 214.15625 165.5 L 214.089844 165.507812 C 214.007812 165.515625 213.925781 165.519531 213.835938 165.53125 C 213.472656 165.550781 213.097656 165.542969 212.730469 165.503906 C 211.988281 165.4375 211.238281 165.269531 210.472656 165.167969 C 209.710938 165.058594 208.921875 165.03125 208.1875 165.253906 L 207.496094 165.464844 L 207.804688 164.765625 C 207.867188 164.621094 207.9375 164.480469 207.917969 164.320312 C 207.917969 164.027344 207.726562 163.722656 207.488281 163.492188 L 207.414062 163.421875 L 207.394531 163.332031 C 207.386719 163.296875 207.378906 163.261719 207.382812 163.222656 C 207.382812 163.191406 207.398438 163.132812 207.402344 163.128906 C 207.410156 163.105469 207.417969 163.085938 207.429688 163.0625 C 207.449219 163.027344 207.453125 163.023438 207.46875 163.003906 C 207.488281 162.980469 207.507812 162.964844 207.519531 162.949219 C 207.546875 162.921875 207.570312 162.902344 207.59375 162.882812 C 207.636719 162.839844 207.679688 162.808594 207.722656 162.773438 C 207.804688 162.707031 207.886719 162.648438 207.96875 162.585938 C 208.132812 162.464844 208.296875 162.351562 208.460938 162.238281 C 208.785156 162.011719 209.105469 161.792969 209.421875 161.582031 C 210.054688 161.164062 210.660156 160.761719 211.238281 160.382812 C 211.515625 160.183594 211.789062 159.988281 212.054688 159.804688 C 212.304688 159.605469 212.554688 159.417969 212.789062 159.230469 C 213.015625 159.03125 213.242188 158.851562 213.445312 158.660156 C 213.640625 158.464844 213.839844 158.285156 214.015625 158.097656 C 214.730469 157.371094 215.160156 156.664062 215.484375 156.191406 C 215.761719 155.691406 215.9375 155.421875 215.976562 155.441406 C 216.015625 155.457031 215.917969 155.761719 215.699219 156.308594 C 215.4375 156.828125 215.050781 157.601562 214.347656 158.402344 C 214.179688 158.605469 213.980469 158.800781 213.785156 159.015625 C 213.585938 159.226562 213.355469 159.421875 213.128906 159.636719 C 212.898438 159.84375 212.644531 160.046875 212.386719 160.261719 C 212.121094 160.460938 211.871094 160.660156 211.574219 160.878906 C 211 161.273438 210.402344 161.683594 209.777344 162.113281 C 209.46875 162.332031 209.152344 162.550781 208.832031 162.777344 C 208.675781 162.890625 208.519531 163.003906 208.359375 163.121094 C 208.300781 163.167969 208.238281 163.214844 208.175781 163.261719 C 208.253906 163.351562 208.320312 163.453125 208.375 163.566406 C 208.441406 163.667969 208.476562 163.792969 208.523438 163.910156 C 208.542969 163.972656 208.550781 164.039062 208.5625 164.101562 C 208.578125 164.167969 208.585938 164.230469 208.582031 164.300781 L 208.578125 164.484375 C 209.269531 164.375 209.945312 164.425781 210.5625 164.523438 C 211.363281 164.640625 212.097656 164.820312 212.792969 164.898438 C 213.144531 164.945312 213.476562 164.957031 213.792969 164.953125 C 213.878906 164.945312 213.964844 164.941406 214.050781 164.9375 L 214.113281 164.933594 C 214.113281 164.933594 214.132812 164.933594 214.132812 164.933594 L 214.160156 164.929688 L 214.28125 164.910156 C 214.445312 164.890625 214.601562 164.871094 214.757812 164.847656 C 215.070312 164.800781 215.371094 164.746094 215.660156 164.6875 C 215.949219 164.625 216.226562 164.574219 216.488281 164.511719 C 217.546875 164.269531 218.40625 164.066406 219.015625 163.980469 C 219.621094 163.886719 219.953125 163.878906 219.964844 163.917969 C 219.972656 163.96875 219.648438 164.0625 219.066406 164.226562 Z M 206.496094 161.09375 C 206.101562 161.292969 205.675781 161.492188 205.148438 161.546875 L 204.691406 161.597656 L 204.8125 161.105469 C 204.832031 161.023438 204.859375 160.9375 204.855469 160.867188 C 204.863281 160.71875 204.820312 160.601562 204.71875 160.46875 C 204.613281 160.335938 204.453125 160.207031 204.285156 160.070312 C 204.113281 159.933594 203.929688 159.78125 203.765625 159.589844 C 203.679688 159.496094 203.601562 159.386719 203.539062 159.269531 C 203.511719 159.210938 203.476562 159.144531 203.453125 159.089844 L 203.394531 158.9375 C 203.359375 158.839844 203.320312 158.691406 203.292969 158.578125 C 203.273438 158.460938 203.25 158.347656 203.242188 158.234375 C 203.21875 158.007812 203.214844 157.789062 203.222656 157.574219 C 203.234375 157.140625 203.289062 156.730469 203.355469 156.332031 C 203.488281 155.539062 203.714844 154.8125 203.90625 154.148438 C 204.003906 153.8125 204.097656 153.492188 204.1875 153.183594 C 204.265625 152.871094 204.335938 152.574219 204.40625 152.289062 C 204.558594 151.722656 204.644531 151.199219 204.738281 150.742188 C 204.785156 150.511719 204.832031 150.300781 204.867188 150.101562 C 204.902344 149.902344 204.929688 149.722656 204.957031 149.558594 C 205.066406 148.910156 205.148438 148.546875 205.195312 148.550781 C 205.242188 148.558594 205.246094 148.925781 205.210938 149.589844 C 205.207031 149.753906 205.191406 149.941406 205.183594 150.144531 C 205.164062 150.34375 205.136719 150.5625 205.109375 150.796875 C 205.046875 151.269531 204.992188 151.804688 204.863281 152.394531 C 204.808594 152.6875 204.746094 152.996094 204.683594 153.316406 C 204.605469 153.632812 204.523438 153.957031 204.4375 154.292969 C 204.265625 154.972656 204.070312 155.675781 203.960938 156.433594 C 203.902344 156.808594 203.863281 157.195312 203.859375 157.585938 C 203.855469 157.777344 203.859375 157.972656 203.886719 158.160156 C 203.890625 158.261719 203.914062 158.347656 203.929688 158.441406 C 203.9375 158.488281 203.953125 158.523438 203.960938 158.5625 C 203.972656 158.605469 203.976562 158.640625 204 158.691406 L 204.058594 158.839844 L 204.113281 158.949219 C 204.152344 159.015625 204.199219 159.085938 204.257812 159.152344 C 204.378906 159.285156 204.53125 159.414062 204.699219 159.550781 C 204.867188 159.691406 205.058594 159.832031 205.234375 160.046875 C 205.320312 160.160156 205.402344 160.285156 205.457031 160.433594 C 205.496094 160.546875 205.519531 160.667969 205.523438 160.785156 C 205.75 160.710938 205.976562 160.613281 206.199219 160.5 C 206.5625 160.3125 206.914062 160.097656 207.257812 159.875 C 207.601562 159.648438 207.941406 159.425781 208.273438 159.207031 C 208.359375 159.152344 208.445312 159.097656 208.53125 159.042969 C 208.617188 158.992188 208.703125 158.9375 208.789062 158.886719 C 208.953125 158.785156 209.117188 158.6875 209.28125 158.589844 C 209.605469 158.394531 209.917969 158.207031 210.226562 158.023438 C 210.539062 157.839844 210.828125 157.644531 211.113281 157.46875 C 211.675781 157.109375 212.21875 156.789062 212.679688 156.457031 C 213.152344 156.140625 213.582031 155.855469 213.957031 155.601562 C 214.324219 155.335938 214.644531 155.105469 214.902344 154.917969 C 215.425781 154.550781 215.730469 154.359375 215.757812 154.394531 C 215.785156 154.429688 215.535156 154.6875 215.0625 155.117188 C 214.824219 155.335938 214.535156 155.597656 214.183594 155.890625 C 213.820312 156.171875 213.40625 156.488281 212.949219 156.839844 C 212.492188 157.199219 211.964844 157.542969 211.40625 157.929688 C 211.128906 158.117188 210.839844 158.324219 210.535156 158.519531 C 210.230469 158.710938 209.917969 158.910156 209.59375 159.113281 C 209.433594 159.214844 209.269531 159.316406 209.101562 159.421875 C 209.023438 159.472656 208.945312 159.523438 208.863281 159.574219 C 208.785156 159.628906 208.699219 159.683594 208.617188 159.738281 C 208.296875 159.957031 207.960938 160.195312 207.609375 160.425781 C 207.257812 160.65625 206.894531 160.886719 206.496094 161.09375 Z M 219.882812 162.488281 C 218.835938 161.769531 218.21875 160.550781 217.738281 159.410156 C 217.234375 158.234375 216.914062 156.960938 216.914062 155.675781 C 216.910156 154.652344 217.933594 153.585938 217.8125 152.609375 C 216.71875 153.375 215.59375 154.136719 214.257812 154.332031 C 212.820312 154.542969 211.371094 153.882812 210.203125 153.105469 C 208.800781 152.171875 207.445312 150.941406 206.492188 149.539062 C 206.183594 149.085938 205.882812 148.511719 205.898438 147.945312 C 205.921875 147.183594 206.273438 146.464844 206.257812 145.714844 C 205.382812 146.308594 205.035156 147.605469 204.691406 148.539062 C 204.226562 149.8125 203.625 151.015625 203.230469 152.316406 C 202.304688 155.363281 202.316406 158.605469 202.269531 161.757812 C 202.230469 162.570312 201.980469 163.351562 201.863281 164.15625 C 201.644531 165.691406 202.742188 166.09375 204.046875 166.234375 C 206.261719 166.476562 208.460938 166.179688 210.675781 166.136719 C 212.703125 166.097656 214.71875 166.394531 216.746094 166.21875 C 218.910156 166.03125 221.101562 165.078125 222.898438 163.824219 C 221.867188 163.433594 220.796875 163.117188 219.882812 162.488281 " fill-opacity="1" fill-rule="nonzero"/></g></g></g><g clip-path="url(#3eedee6bf6)"><g clip-path="url(#e1b1127749)"><g clip-path="url(#62f7341208)"><path fill="#388e3c" d="M 203.152344 143.566406 C 202.949219 143.820312 202.738281 144.082031 202.519531 144.351562 C 202.089844 144.890625 201.621094 145.488281 201.046875 146.050781 C 200.761719 146.335938 200.457031 146.609375 200.109375 146.867188 C 199.9375 146.992188 199.757812 147.117188 199.558594 147.222656 C 199.460938 147.28125 199.351562 147.324219 199.246094 147.378906 C 199.140625 147.421875 199 147.472656 198.894531 147.496094 L 198.738281 147.535156 C 198.683594 147.546875 198.609375 147.554688 198.542969 147.566406 C 198.410156 147.578125 198.277344 147.578125 198.152344 147.5625 C 197.902344 147.535156 197.675781 147.46875 197.464844 147.40625 C 197.253906 147.34375 197.058594 147.285156 196.890625 147.273438 C 196.722656 147.261719 196.605469 147.296875 196.488281 147.382812 C 196.429688 147.421875 196.378906 147.496094 196.320312 147.558594 L 195.984375 147.933594 L 195.765625 147.53125 C 195.511719 147.0625 195.429688 146.597656 195.371094 146.15625 C 195.3125 145.707031 195.292969 145.273438 195.285156 144.855469 C 195.273438 144.433594 195.277344 144.023438 195.273438 143.628906 C 195.269531 143.53125 195.269531 143.433594 195.265625 143.335938 C 195.261719 143.238281 195.257812 143.144531 195.253906 143.046875 C 195.246094 142.851562 195.234375 142.660156 195.226562 142.46875 C 195.210938 142.085938 195.199219 141.710938 195.183594 141.347656 C 195.164062 140.988281 195.171875 140.632812 195.164062 140.292969 C 195.164062 139.613281 195.144531 138.980469 195.179688 138.398438 C 195.207031 137.820312 195.230469 137.296875 195.253906 136.835938 C 195.296875 136.382812 195.347656 135.992188 195.386719 135.671875 C 195.46875 135.03125 195.539062 134.683594 195.582031 134.683594 C 195.628906 134.691406 195.648438 135.046875 195.644531 135.6875 C 195.636719 136.011719 195.628906 136.402344 195.621094 136.859375 C 195.628906 137.3125 195.636719 137.832031 195.644531 138.40625 C 195.640625 138.972656 195.6875 139.601562 195.710938 140.277344 C 195.730469 140.613281 195.734375 140.964844 195.761719 141.324219 C 195.785156 141.683594 195.808594 142.050781 195.835938 142.429688 C 195.847656 142.621094 195.859375 142.8125 195.875 143.007812 C 195.878906 143.105469 195.886719 143.207031 195.894531 143.308594 C 195.894531 143.410156 195.898438 143.511719 195.902344 143.613281 C 195.914062 144.011719 195.921875 144.417969 195.929688 144.835938 C 195.949219 145.242188 195.96875 145.65625 196.023438 146.066406 C 196.058594 146.3125 196.105469 146.558594 196.175781 146.785156 C 196.277344 146.726562 196.386719 146.671875 196.503906 146.644531 C 196.652344 146.601562 196.804688 146.597656 196.941406 146.609375 C 197.21875 146.628906 197.441406 146.707031 197.652344 146.765625 C 197.859375 146.828125 198.054688 146.882812 198.230469 146.902344 C 198.316406 146.917969 198.398438 146.914062 198.480469 146.910156 L 198.597656 146.894531 L 198.75 146.855469 C 198.808594 146.847656 198.839844 146.828125 198.878906 146.816406 C 198.917969 146.800781 198.953125 146.792969 199 146.773438 C 199.082031 146.734375 199.167969 146.699219 199.253906 146.652344 C 199.417969 146.566406 199.582031 146.457031 199.738281 146.347656 C 200.054688 146.125 200.347656 145.867188 200.621094 145.605469 C 201.175781 145.085938 201.644531 144.527344 202.101562 143.996094 C 202.328125 143.734375 202.550781 143.480469 202.761719 143.238281 C 202.984375 143 203.207031 142.777344 203.414062 142.5625 C 203.820312 142.125 204.230469 141.769531 204.578125 141.453125 C 204.753906 141.296875 204.917969 141.148438 205.074219 141.019531 C 205.230469 140.894531 205.375 140.78125 205.507812 140.679688 C 206.035156 140.273438 206.335938 140.070312 206.367188 140.105469 C 206.398438 140.140625 206.148438 140.414062 205.679688 140.875 C 205.5625 140.988281 205.429688 141.117188 205.285156 141.257812 C 205.144531 141.398438 204.996094 141.558594 204.835938 141.726562 C 204.511719 142.066406 204.132812 142.433594 203.757812 142.882812 C 203.566406 143.101562 203.363281 143.332031 203.152344 143.566406 Z M 193.273438 146.367188 C 193.265625 146.382812 193.261719 146.410156 193.253906 146.4375 C 193.246094 146.460938 193.246094 146.464844 193.230469 146.503906 C 193.21875 146.527344 193.207031 146.546875 193.191406 146.566406 C 193.1875 146.570312 193.152344 146.617188 193.125 146.632812 C 193.097656 146.65625 193.0625 146.675781 193.027344 146.6875 L 192.945312 146.71875 L 192.84375 146.699219 C 192.519531 146.632812 192.164062 146.648438 191.921875 146.816406 C 191.785156 146.890625 191.707031 147.027344 191.625 147.160156 L 191.226562 147.8125 L 191.003906 147.121094 C 190.769531 146.386719 190.300781 145.75 189.777344 145.183594 C 189.261719 144.605469 188.699219 144.082031 188.21875 143.503906 C 187.976562 143.222656 187.761719 142.917969 187.570312 142.601562 C 187.527344 142.527344 187.484375 142.453125 187.445312 142.378906 L 187.414062 142.324219 L 187.390625 142.285156 L 187.378906 142.253906 L 187.324219 142.140625 C 187.253906 141.984375 187.179688 141.835938 187.109375 141.6875 C 186.980469 141.386719 186.863281 141.089844 186.753906 140.808594 C 186.652344 140.523438 186.550781 140.253906 186.464844 139.992188 C 186.125 138.953125 185.851562 138.113281 185.664062 137.535156 C 185.46875 136.957031 185.359375 136.636719 185.402344 136.613281 C 185.441406 136.597656 185.625 136.882812 185.894531 137.433594 C 186.167969 137.988281 186.492188 138.816406 186.894531 139.828125 C 186.992188 140.085938 187.109375 140.34375 187.222656 140.617188 C 187.339844 140.886719 187.464844 141.167969 187.601562 141.453125 C 187.671875 141.59375 187.746094 141.738281 187.824219 141.882812 L 187.878906 141.992188 L 187.890625 142.019531 C 187.894531 142.023438 187.898438 142.03125 187.902344 142.035156 L 187.933594 142.089844 C 187.976562 142.164062 188.023438 142.238281 188.066406 142.3125 C 188.242188 142.574219 188.441406 142.84375 188.679688 143.105469 C 189.140625 143.640625 189.703125 144.144531 190.253906 144.742188 C 190.679688 145.199219 191.109375 145.730469 191.414062 146.359375 L 191.5625 146.253906 C 191.617188 146.210938 191.675781 146.183594 191.738281 146.15625 C 191.792969 146.132812 191.855469 146.097656 191.914062 146.082031 C 192.039062 146.050781 192.160156 146.007812 192.28125 146.003906 C 192.40625 145.988281 192.523438 145.988281 192.640625 145.996094 C 192.648438 145.921875 192.648438 145.84375 192.652344 145.765625 C 192.65625 145.566406 192.664062 145.371094 192.664062 145.179688 C 192.667969 144.785156 192.667969 144.398438 192.671875 144.023438 C 192.664062 143.261719 192.664062 142.527344 192.664062 141.832031 C 192.671875 141.464844 192.6875 141.140625 192.703125 140.808594 C 192.734375 140.472656 192.753906 140.148438 192.789062 139.839844 C 192.839844 139.527344 192.871094 139.226562 192.925781 138.945312 C 192.988281 138.660156 193.039062 138.382812 193.105469 138.128906 C 193.363281 137.09375 193.777344 136.332031 194.054688 135.820312 C 194.375 135.328125 194.570312 135.074219 194.605469 135.097656 C 194.640625 135.121094 194.519531 135.417969 194.269531 135.929688 C 194.070312 136.464844 193.734375 137.222656 193.546875 138.230469 C 193.492188 138.480469 193.460938 138.75 193.410156 139.023438 C 193.371094 139.296875 193.351562 139.589844 193.320312 139.890625 C 193.296875 140.191406 193.285156 140.503906 193.265625 140.824219 C 193.265625 141.148438 193.261719 141.484375 193.253906 141.828125 C 193.269531 142.523438 193.289062 143.253906 193.308594 144.015625 C 193.316406 144.394531 193.320312 144.785156 193.320312 145.183594 C 193.320312 145.378906 193.320312 145.582031 193.3125 145.785156 C 193.308594 145.886719 193.304688 145.992188 193.296875 146.097656 C 193.296875 146.152344 193.292969 146.207031 193.285156 146.265625 C 193.28125 146.296875 193.277344 146.328125 193.273438 146.367188 Z M 206.664062 140.511719 C 207.230469 139.699219 208.09375 138.671875 208.085938 137.613281 C 207.460938 138.027344 207.070312 138.722656 206.460938 139.175781 C 206.007812 139.515625 205.367188 139.589844 204.820312 139.59375 C 203.136719 139.601562 201.355469 139.179688 199.792969 138.546875 C 198.492188 138.023438 197.132812 137.199219 196.488281 135.890625 C 195.886719 134.671875 195.871094 133.304688 195.875 131.96875 C 195.007812 132.421875 194.714844 133.875 193.882812 134.453125 C 192.828125 135.183594 191.605469 135.640625 190.355469 135.894531 C 189.152344 136.140625 187.804688 136.328125 186.621094 135.871094 C 185.585938 135.472656 184.71875 134.765625 183.816406 134.132812 C 183.808594 136.332031 184.277344 138.6875 185.355469 140.585938 C 186.363281 142.367188 187.75 143.867188 188.871094 145.5625 C 190.097656 147.421875 191.101562 149.410156 192.558594 151.105469 C 193.417969 152.109375 194.367188 152.785156 195.5 151.730469 C 196.089844 151.179688 196.585938 150.527344 197.230469 150.03125 C 199.785156 148.203125 202.441406 146.367188 204.40625 143.871094 C 205.246094 142.804688 205.886719 141.621094 206.664062 140.511719 " fill-opacity="1" fill-rule="nonzero"/></g></g></g></svg>